<?xml version="1.0" encoding="utf-8" standalone="no"?>
<!DOCTYPE svg PUBLIC "-//W3C//DTD SVG 1.1//EN"
  "http://www.w3.org/Graphics/SVG/1.1/DTD/svg11.dtd">
<svg xmlns:xlink="http://www.w3.org/1999/xlink" width="576pt" height="432pt" viewBox="0 0 576 432" xmlns="http://www.w3.org/2000/svg" version="1.1">
 <metadata>
  <rdf:RDF xmlns:dc="http://purl.org/dc/elements/1.1/" xmlns:cc="http://creativecommons.org/ns#" xmlns:rdf="http://www.w3.org/1999/02/22-rdf-syntax-ns#">
   <cc:Work>
    <dc:type rdf:resource="http://purl.org/dc/dcmitype/StillImage"/>
    <dc:date>2023-05-11T09:53:32.454834</dc:date>
    <dc:format>image/svg+xml</dc:format>
    <dc:creator>
     <cc:Agent>
      <dc:title>Matplotlib v3.7.0, https://matplotlib.org/</dc:title>
     </cc:Agent>
    </dc:creator>
   </cc:Work>
  </rdf:RDF>
 </metadata>
 <defs>
  <style type="text/css">*{stroke-linejoin: round; stroke-linecap: butt}</style>
 </defs>
 <g id="figure_1">
  <g id="patch_1">
   <path d="M 0 432 
L 576 432 
L 576 0 
L 0 0 
L 0 432 
z
" style="fill: none"/>
  </g>
  <g id="axes_1">
   <g id="patch_2">
    <path d="M 54.634499 388.988647 
L 565.2 388.988647 
L 565.2 25.10218 
L 54.634499 25.10218 
z
" style="fill: #ffffff"/>
   </g>
   <g id="matplotlib.axis_1">
    <g id="xtick_1">
     <g id="line2d_1">
      <defs>
       <path id="m96d4ac2797" d="M 0 0 
L 0 3.5 
" style="stroke: #000000"/>
      </defs>
      <g>
       <use xlink:href="#m96d4ac2797" x="77.842022" y="388.988647" style="stroke: #000000"/>
      </g>
     </g>
     <g id="text_1">
      <!-- $\mathdefault{−4}$ -->
      <g transform="translate(71.476983 406.407145) scale(0.1 -0.1)">
       <defs>
        <path id="CMSY10-0" d="M 4218 1472 
C 4326 1472 4442 1472 4442 1600 
C 4442 1728 4326 1728 4218 1728 
L 755 1728 
C 646 1728 531 1728 531 1600 
C 531 1472 646 1472 755 1472 
L 4218 1472 
z
" transform="scale(0.015625)"/>
        <path id="CMR17-34" d="M 2150 4147 
C 2150 4281 2144 4288 2029 4288 
L 128 1254 
L 128 1088 
L 1779 1088 
L 1779 460 
C 1779 230 1766 166 1318 166 
L 1197 166 
L 1197 0 
C 1402 12 1747 12 1965 12 
C 2182 12 2528 12 2733 0 
L 2733 166 
L 2611 166 
C 2163 166 2150 230 2150 460 
L 2150 1088 
L 2803 1088 
L 2803 1254 
L 2150 1254 
L 2150 4147 
z
M 1798 3723 
L 1798 1254 
L 256 1254 
L 1798 3723 
z
" transform="scale(0.015625)"/>
       </defs>
       <use xlink:href="#CMSY10-0" transform="scale(0.996264)"/>
       <use xlink:href="#CMR17-34" transform="translate(77.487468 0) scale(0.996264)"/>
      </g>
     </g>
    </g>
    <g id="xtick_2">
     <g id="line2d_2">
      <g>
       <use xlink:href="#m96d4ac2797" x="135.860829" y="388.988647" style="stroke: #000000"/>
      </g>
     </g>
     <g id="text_2">
      <!-- $\mathdefault{−3}$ -->
      <g transform="translate(129.49579 406.407145) scale(0.1 -0.1)">
       <defs>
        <path id="CMR17-33" d="M 1414 2176 
C 1984 2176 2234 1673 2234 1094 
C 2234 322 1824 25 1453 25 
C 1114 25 563 193 390 691 
C 422 678 454 678 486 678 
C 640 678 755 780 755 947 
C 755 1132 614 1216 486 1216 
C 378 1216 211 1164 211 927 
C 211 335 787 -128 1466 -128 
C 2176 -128 2720 432 2720 1087 
C 2720 1718 2208 2176 1600 2246 
C 2086 2347 2554 2776 2554 3353 
C 2554 3856 2048 4224 1472 4224 
C 890 4224 378 3862 378 3347 
C 378 3123 544 3084 627 3084 
C 762 3084 877 3167 877 3334 
C 877 3500 762 3584 627 3584 
C 602 3584 570 3584 544 3571 
C 730 3999 1235 4076 1459 4076 
C 1683 4076 2106 3966 2106 3347 
C 2106 3167 2080 2851 1862 2574 
C 1670 2329 1453 2316 1242 2297 
C 1210 2297 1062 2284 1037 2284 
C 992 2278 966 2272 966 2227 
C 966 2182 973 2176 1101 2176 
L 1414 2176 
z
" transform="scale(0.015625)"/>
       </defs>
       <use xlink:href="#CMSY10-0" transform="scale(0.996264)"/>
       <use xlink:href="#CMR17-33" transform="translate(77.487468 0) scale(0.996264)"/>
      </g>
     </g>
    </g>
    <g id="xtick_3">
     <g id="line2d_3">
      <g>
       <use xlink:href="#m96d4ac2797" x="193.879636" y="388.988647" style="stroke: #000000"/>
      </g>
     </g>
     <g id="text_3">
      <!-- $\mathdefault{−2}$ -->
      <g transform="translate(187.514596 406.407145) scale(0.1 -0.1)">
       <defs>
        <path id="CMR17-32" d="M 2669 990 
L 2554 990 
C 2490 537 2438 460 2413 422 
C 2381 371 1920 371 1830 371 
L 602 371 
C 832 620 1280 1073 1824 1596 
C 2214 1966 2669 2400 2669 3033 
C 2669 3788 2067 4224 1395 4224 
C 691 4224 262 3603 262 3027 
C 262 2777 448 2745 525 2745 
C 589 2745 781 2783 781 3007 
C 781 3206 614 3264 525 3264 
C 486 3264 448 3257 422 3244 
C 544 3788 915 4057 1306 4057 
C 1862 4057 2227 3616 2227 3033 
C 2227 2477 1901 1998 1536 1583 
L 262 147 
L 262 0 
L 2515 0 
L 2669 990 
z
" transform="scale(0.015625)"/>
       </defs>
       <use xlink:href="#CMSY10-0" transform="scale(0.996264)"/>
       <use xlink:href="#CMR17-32" transform="translate(77.487468 0) scale(0.996264)"/>
      </g>
     </g>
    </g>
    <g id="xtick_4">
     <g id="line2d_4">
      <g>
       <use xlink:href="#m96d4ac2797" x="251.898443" y="388.988647" style="stroke: #000000"/>
      </g>
     </g>
     <g id="text_4">
      <!-- $\mathdefault{−1}$ -->
      <g transform="translate(245.533403 406.407145) scale(0.1 -0.1)">
       <defs>
        <path id="CMR17-31" d="M 1702 4083 
C 1702 4217 1696 4224 1606 4224 
C 1357 3927 979 3833 621 3820 
C 602 3820 570 3820 563 3808 
C 557 3795 557 3782 557 3648 
C 755 3648 1088 3686 1344 3839 
L 1344 467 
C 1344 243 1331 166 781 166 
L 589 166 
L 589 0 
C 896 6 1216 12 1523 12 
C 1830 12 2150 6 2458 0 
L 2458 166 
L 2266 166 
C 1715 166 1702 236 1702 467 
L 1702 4083 
z
" transform="scale(0.015625)"/>
       </defs>
       <use xlink:href="#CMSY10-0" transform="scale(0.996264)"/>
       <use xlink:href="#CMR17-31" transform="translate(77.487468 0) scale(0.996264)"/>
      </g>
     </g>
    </g>
    <g id="xtick_5">
     <g id="line2d_5">
      <g>
       <use xlink:href="#m96d4ac2797" x="309.91725" y="388.988647" style="stroke: #000000"/>
      </g>
     </g>
     <g id="text_5">
      <!-- $\mathdefault{0}$ -->
      <g transform="translate(307.426582 406.407145) scale(0.1 -0.1)">
       <defs>
        <path id="CMR17-30" d="M 2688 2038 
C 2688 2430 2682 3099 2413 3613 
C 2176 4063 1798 4224 1466 4224 
C 1158 4224 768 4082 525 3620 
C 269 3137 243 2539 243 2038 
C 243 1671 250 1112 448 623 
C 723 -39 1216 -128 1466 -128 
C 1760 -128 2208 -7 2470 604 
C 2662 1048 2688 1568 2688 2038 
z
M 1466 -26 
C 1056 -26 813 328 723 816 
C 653 1196 653 1749 653 2109 
C 653 2604 653 3015 736 3407 
C 858 3954 1216 4121 1466 4121 
C 1728 4121 2067 3947 2189 3420 
C 2272 3054 2278 2623 2278 2109 
C 2278 1691 2278 1176 2202 797 
C 2067 96 1690 -26 1466 -26 
z
" transform="scale(0.015625)"/>
       </defs>
       <use xlink:href="#CMR17-30" transform="scale(0.996264)"/>
      </g>
     </g>
    </g>
    <g id="xtick_6">
     <g id="line2d_6">
      <g>
       <use xlink:href="#m96d4ac2797" x="367.936057" y="388.988647" style="stroke: #000000"/>
      </g>
     </g>
     <g id="text_6">
      <!-- $\mathdefault{1}$ -->
      <g transform="translate(365.445389 406.407145) scale(0.1 -0.1)">
       <use xlink:href="#CMR17-31" transform="scale(0.996264)"/>
      </g>
     </g>
    </g>
    <g id="xtick_7">
     <g id="line2d_7">
      <g>
       <use xlink:href="#m96d4ac2797" x="425.954863" y="388.988647" style="stroke: #000000"/>
      </g>
     </g>
     <g id="text_7">
      <!-- $\mathdefault{2}$ -->
      <g transform="translate(423.464196 406.407145) scale(0.1 -0.1)">
       <use xlink:href="#CMR17-32" transform="scale(0.996264)"/>
      </g>
     </g>
    </g>
    <g id="xtick_8">
     <g id="line2d_8">
      <g>
       <use xlink:href="#m96d4ac2797" x="483.97367" y="388.988647" style="stroke: #000000"/>
      </g>
     </g>
     <g id="text_8">
      <!-- $\mathdefault{3}$ -->
      <g transform="translate(481.483003 406.407145) scale(0.1 -0.1)">
       <use xlink:href="#CMR17-33" transform="scale(0.996264)"/>
      </g>
     </g>
    </g>
    <g id="xtick_9">
     <g id="line2d_9">
      <g>
       <use xlink:href="#m96d4ac2797" x="541.992477" y="388.988647" style="stroke: #000000"/>
      </g>
     </g>
     <g id="text_9">
      <!-- $\mathdefault{4}$ -->
      <g transform="translate(539.50181 406.407145) scale(0.1 -0.1)">
       <use xlink:href="#CMR17-34" transform="scale(0.996264)"/>
      </g>
     </g>
    </g>
    <g id="text_10">
     <!-- Neuron index circular distance -->
     <g transform="translate(247.097191 419.262822) scale(0.1 -0.1)">
      <defs>
       <path id="CMSS17-4e" d="M 1466 4179 
L 1350 4416 
L 563 4416 
L 563 0 
L 1062 0 
L 1062 3925 
L 1069 3931 
C 1114 3817 1139 3759 1402 3193 
L 2771 236 
L 2886 0 
L 3674 0 
L 3674 4416 
L 3174 4416 
L 3174 490 
L 3168 484 
C 3123 598 3098 655 2835 1222 
L 1466 4179 
z
" transform="scale(0.015625)"/>
       <path id="CMSS17-65" d="M 2502 1375 
C 2502 1587 2490 2001 2285 2347 
C 2061 2713 1696 2816 1421 2816 
C 755 2816 192 2184 192 1363 
C 192 579 774 -64 1510 -64 
C 1798 -64 2150 19 2470 249 
C 2470 275 2458 414 2451 421 
C 2451 433 2432 629 2432 655 
C 2125 408 1773 326 1517 326 
C 1107 326 666 667 646 1375 
L 2502 1375 
z
M 698 1728 
C 781 2086 1062 2425 1421 2425 
C 1517 2425 1965 2412 2080 1728 
L 698 1728 
z
" transform="scale(0.015625)"/>
       <path id="CMSS17-75" d="M 2618 2752 
L 2131 2752 
L 2131 976 
C 2131 500 1786 307 1421 307 
C 998 307 960 448 960 712 
L 960 2752 
L 474 2752 
L 474 680 
C 474 179 646 -64 1088 -64 
C 1306 -64 1798 -13 2144 307 
L 2144 -13 
L 2618 -13 
L 2618 2752 
z
" transform="scale(0.015625)"/>
       <path id="CMSS17-72" d="M 954 1369 
C 954 1974 1395 2379 1958 2392 
L 1958 2816 
C 1549 2809 1165 2604 934 2270 
L 934 2783 
L 480 2783 
L 480 0 
L 954 0 
L 954 1369 
z
" transform="scale(0.015625)"/>
       <path id="CMSS17-6f" d="M 2829 1356 
C 2829 2175 2221 2816 1504 2816 
C 768 2816 173 2156 173 1356 
C 173 544 787 -64 1498 -64 
C 2227 -64 2829 563 2829 1356 
z
M 1504 339 
C 1050 339 659 710 659 1407 
C 659 2150 1114 2425 1498 2425 
C 1914 2425 2342 2124 2342 1407 
C 2342 684 1926 339 1504 339 
z
" transform="scale(0.015625)"/>
       <path id="CMSS17-6e" d="M 2618 1878 
C 2618 2283 2522 2816 1798 2816 
C 1389 2816 1120 2604 941 2386 
L 941 2783 
L 474 2783 
L 474 0 
L 960 0 
L 960 1556 
C 960 1962 1114 2425 1549 2425 
C 2112 2425 2131 2045 2131 1826 
L 2131 0 
L 2618 0 
L 2618 1878 
z
" transform="scale(0.015625)"/>
       <path id="CMSS17-69" d="M 979 4224 
L 442 4224 
L 442 3686 
L 979 3686 
L 979 4224 
z
M 947 2752 
L 474 2752 
L 474 0 
L 947 0 
L 947 2752 
z
" transform="scale(0.015625)"/>
       <path id="CMSS17-64" d="M 2611 4416 
L 2138 4416 
L 2138 2495 
C 1939 2662 1613 2816 1254 2816 
C 672 2816 211 2179 211 1375 
C 211 572 666 -64 1235 -64 
C 1677 -64 1971 172 2125 307 
L 2125 -13 
L 2611 -13 
L 2611 4416 
z
M 2125 851 
C 2125 760 2125 663 1926 488 
C 1798 378 1645 326 1498 326 
C 1152 326 698 585 698 1369 
C 698 2185 1210 2425 1562 2425 
C 1798 2425 1990 2308 2125 2114 
L 2125 851 
z
" transform="scale(0.015625)"/>
       <path id="CMSS17-78" d="M 1587 1420 
L 2656 2752 
L 2099 2752 
L 1363 1785 
L 602 2752 
L 32 2752 
L 1139 1420 
L 0 0 
L 563 0 
L 1363 1126 
L 2195 0 
L 2758 0 
L 1587 1420 
z
" transform="scale(0.015625)"/>
       <path id="CMSS17-63" d="M 2464 2540 
C 2464 2585 2170 2713 2093 2739 
C 1882 2816 1613 2816 1542 2816 
C 710 2816 211 2092 211 1363 
C 211 595 768 -64 1517 -64 
C 1946 -64 2253 76 2502 243 
L 2464 665 
C 2189 454 1869 339 1523 339 
C 1024 339 698 774 698 1369 
C 698 1830 909 2412 1549 2412 
C 1901 2412 2099 2342 2394 2143 
L 2464 2540 
z
" transform="scale(0.015625)"/>
       <path id="CMSS17-6c" d="M 947 4416 
L 474 4416 
L 474 0 
L 947 0 
L 947 4416 
z
" transform="scale(0.015625)"/>
       <path id="CMSS17-61" d="M 2406 1789 
C 2406 2399 1978 2816 1402 2816 
C 1120 2816 813 2764 461 2559 
L 499 2133 
C 659 2250 934 2438 1395 2438 
C 1722 2438 1920 2185 1920 1782 
L 1920 1536 
C 896 1504 256 1209 256 711 
C 256 452 416 -64 947 -64 
C 1043 -64 1562 -52 1933 224 
L 1933 -13 
L 2406 -13 
L 2406 1789 
z
M 1920 824 
C 1920 711 1920 559 1728 446 
C 1562 339 1350 326 1261 326 
C 941 326 723 503 723 723 
C 723 1165 1722 1209 1920 1216 
L 1920 824 
z
" transform="scale(0.015625)"/>
       <path id="CMSS17-73" d="M 2061 2623 
C 1683 2803 1389 2816 1197 2816 
C 742 2816 198 2655 198 2009 
C 198 1363 902 1222 1094 1183 
C 1389 1126 1715 1062 1715 742 
C 1715 339 1254 339 1171 339 
C 915 339 563 409 243 639 
L 166 211 
C 531 0 883 -64 1178 -64 
C 1965 -64 2163 416 2163 780 
C 2163 1094 1984 1305 1862 1401 
C 1651 1567 1574 1587 1050 1695 
C 960 1708 646 1779 646 2067 
C 646 2431 1050 2431 1139 2431 
C 1555 2431 1811 2303 1984 2207 
L 2061 2623 
z
" transform="scale(0.015625)"/>
       <path id="CMSS17-74" d="M 1069 2380 
L 1901 2380 
L 1901 2752 
L 1069 2752 
L 1069 3520 
L 614 3520 
L 614 2752 
L 109 2752 
L 109 2380 
L 602 2380 
L 602 751 
C 602 384 685 -64 1107 -64 
C 1427 -64 1722 25 2003 172 
L 1901 551 
C 1747 416 1562 339 1363 339 
C 1082 339 1069 699 1069 860 
L 1069 2380 
z
" transform="scale(0.015625)"/>
      </defs>
      <use xlink:href="#CMSS17-4e" transform="scale(0.996264)"/>
      <use xlink:href="#CMSS17-65" transform="translate(66.061519 0) scale(0.996264)"/>
      <use xlink:href="#CMSS17-75" transform="translate(107.700341 0) scale(0.996264)"/>
      <use xlink:href="#CMSS17-72" transform="translate(155.905284 0) scale(0.996264)"/>
      <use xlink:href="#CMSS17-6f" transform="translate(187.815057 0) scale(0.996264)"/>
      <use xlink:href="#CMSS17-6e" transform="translate(234.65868 0) scale(0.996264)"/>
      <use xlink:href="#CMSS17-69" transform="translate(314.092736 0) scale(0.996264)"/>
      <use xlink:href="#CMSS17-6e" transform="translate(336.273459 0) scale(0.996264)"/>
      <use xlink:href="#CMSS17-64" transform="translate(384.478403 0) scale(0.996264)"/>
      <use xlink:href="#CMSS17-65" transform="translate(432.683346 0) scale(0.996264)"/>
      <use xlink:href="#CMSS17-78" transform="translate(474.322168 0) scale(0.996264)"/>
      <use xlink:href="#CMSS17-63" transform="translate(548.551422 0) scale(0.996264)"/>
      <use xlink:href="#CMSS17-69" transform="translate(590.190244 0) scale(0.996264)"/>
      <use xlink:href="#CMSS17-72" transform="translate(612.370967 0) scale(0.996264)"/>
      <use xlink:href="#CMSS17-63" transform="translate(644.28074 0) scale(0.996264)"/>
      <use xlink:href="#CMSS17-75" transform="translate(685.919562 0) scale(0.996264)"/>
      <use xlink:href="#CMSS17-6c" transform="translate(734.124505 0) scale(0.996264)"/>
      <use xlink:href="#CMSS17-61" transform="translate(756.305228 0) scale(0.996264)"/>
      <use xlink:href="#CMSS17-72" transform="translate(798.624695 0) scale(0.996264)"/>
      <use xlink:href="#CMSS17-64" transform="translate(861.76358 0) scale(0.996264)"/>
      <use xlink:href="#CMSS17-69" transform="translate(909.968523 0) scale(0.996264)"/>
      <use xlink:href="#CMSS17-73" transform="translate(932.149246 0) scale(0.996264)"/>
      <use xlink:href="#CMSS17-74" transform="translate(968.062788 0) scale(0.996264)"/>
      <use xlink:href="#CMSS17-61" transform="translate(1001.894355 0) scale(0.996264)"/>
      <use xlink:href="#CMSS17-6e" transform="translate(1046.816276 0) scale(0.996264)"/>
      <use xlink:href="#CMSS17-63" transform="translate(1095.021219 0) scale(0.996264)"/>
      <use xlink:href="#CMSS17-65" transform="translate(1136.660041 0) scale(0.996264)"/>
     </g>
    </g>
   </g>
   <g id="matplotlib.axis_2">
    <g id="ytick_1">
     <g id="line2d_10">
      <defs>
       <path id="m7e02067ff7" d="M 0 0 
L -3.5 0 
" style="stroke: #000000"/>
      </defs>
      <g>
       <use xlink:href="#m7e02067ff7" x="54.634499" y="339.367765" style="stroke: #000000"/>
      </g>
     </g>
     <g id="text_11">
      <!-- $\mathdefault{−0.2}$ -->
      <g transform="translate(23.655677 342.827014) scale(0.1 -0.1)">
       <defs>
        <path id="CMMI12-3a" d="M 1178 307 
C 1178 492 1024 620 870 620 
C 685 620 557 467 557 313 
C 557 128 710 0 864 0 
C 1050 0 1178 153 1178 307 
z
" transform="scale(0.015625)"/>
       </defs>
       <use xlink:href="#CMSY10-0" transform="scale(0.996264)"/>
       <use xlink:href="#CMR17-30" transform="translate(77.487468 0) scale(0.996264)"/>
       <use xlink:href="#CMMI12-3a" transform="translate(123.177945 0) scale(0.996264)"/>
       <use xlink:href="#CMR17-32" transform="translate(150.275122 0) scale(0.996264)"/>
      </g>
     </g>
    </g>
    <g id="ytick_2">
     <g id="line2d_11">
      <g>
       <use xlink:href="#m7e02067ff7" x="54.634499" y="273.206589" style="stroke: #000000"/>
      </g>
     </g>
     <g id="text_12">
      <!-- $\mathdefault{−0.1}$ -->
      <g transform="translate(23.655677 276.665838) scale(0.1 -0.1)">
       <use xlink:href="#CMSY10-0" transform="scale(0.996264)"/>
       <use xlink:href="#CMR17-30" transform="translate(77.487468 0) scale(0.996264)"/>
       <use xlink:href="#CMMI12-3a" transform="translate(123.177945 0) scale(0.996264)"/>
       <use xlink:href="#CMR17-31" transform="translate(150.275122 0) scale(0.996264)"/>
      </g>
     </g>
    </g>
    <g id="ytick_3">
     <g id="line2d_12">
      <g>
       <use xlink:href="#m7e02067ff7" x="54.634499" y="207.045413" style="stroke: #000000"/>
      </g>
     </g>
     <g id="text_13">
      <!-- $\mathdefault{0.0}$ -->
      <g transform="translate(31.40442 210.504662) scale(0.1 -0.1)">
       <use xlink:href="#CMR17-30" transform="scale(0.996264)"/>
       <use xlink:href="#CMMI12-3a" transform="translate(45.690477 0) scale(0.996264)"/>
       <use xlink:href="#CMR17-30" transform="translate(72.787654 0) scale(0.996264)"/>
      </g>
     </g>
    </g>
    <g id="ytick_4">
     <g id="line2d_13">
      <g>
       <use xlink:href="#m7e02067ff7" x="54.634499" y="140.884237" style="stroke: #000000"/>
      </g>
     </g>
     <g id="text_14">
      <!-- $\mathdefault{0.1}$ -->
      <g transform="translate(31.40442 144.343487) scale(0.1 -0.1)">
       <use xlink:href="#CMR17-30" transform="scale(0.996264)"/>
       <use xlink:href="#CMMI12-3a" transform="translate(45.690477 0) scale(0.996264)"/>
       <use xlink:href="#CMR17-31" transform="translate(72.787654 0) scale(0.996264)"/>
      </g>
     </g>
    </g>
    <g id="ytick_5">
     <g id="line2d_14">
      <g>
       <use xlink:href="#m7e02067ff7" x="54.634499" y="74.723062" style="stroke: #000000"/>
      </g>
     </g>
     <g id="text_15">
      <!-- $\mathdefault{0.2}$ -->
      <g transform="translate(31.40442 78.182311) scale(0.1 -0.1)">
       <use xlink:href="#CMR17-30" transform="scale(0.996264)"/>
       <use xlink:href="#CMMI12-3a" transform="translate(45.690477 0) scale(0.996264)"/>
       <use xlink:href="#CMR17-32" transform="translate(72.787654 0) scale(0.996264)"/>
      </g>
     </g>
    </g>
    <g id="text_16">
     <!-- Weight value -->
     <g transform="translate(17.718498 234.207479) rotate(-90) scale(0.1 -0.1)">
      <defs>
       <path id="CMSS17-57" d="M 5581 4416 
L 5094 4416 
L 4557 2436 
C 4474 2118 4397 1800 4320 1482 
C 4205 1012 4122 681 4109 516 
L 4102 516 
C 4090 687 4006 1050 3904 1457 
C 3827 1794 3744 2131 3654 2462 
L 3123 4416 
L 2586 4416 
L 2080 2564 
L 1824 1552 
C 1632 751 1626 636 1613 509 
L 1606 509 
C 1606 547 1581 757 1402 1501 
C 1312 1870 1222 2246 1126 2602 
L 634 4416 
L 83 4416 
L 1299 0 
L 1830 0 
L 2336 1838 
L 2592 2850 
C 2765 3562 2803 3740 2816 3899 
L 2822 3899 
C 2822 3874 2880 3473 3130 2544 
L 3808 0 
L 4365 0 
L 5581 4416 
z
" transform="scale(0.015625)"/>
       <path id="CMSS17-67" d="M 2848 2816 
C 2483 2809 2170 2739 1914 2617 
C 1702 2783 1485 2816 1338 2816 
C 781 2816 358 2356 358 1824 
C 358 1481 550 1222 563 1209 
C 448 1049 384 876 384 684 
C 384 460 474 300 544 211 
C 211 6 166 -308 166 -429 
C 166 -896 749 -1280 1498 -1280 
C 2253 -1280 2835 -896 2835 -423 
C 2835 460 1856 467 1587 467 
L 1069 467 
C 973 467 717 467 717 793 
C 717 921 774 1004 781 1011 
C 877 940 1075 832 1338 832 
C 1869 832 2310 1279 2310 1824 
C 2310 2128 2170 2349 2112 2425 
L 2131 2425 
C 2150 2425 2419 2444 2515 2444 
C 2720 2444 2739 2438 2918 2419 
L 2848 2816 
z
M 1338 1184 
C 1120 1184 813 1317 813 1824 
C 813 2375 1165 2463 1331 2463 
C 1549 2463 1856 2330 1856 1824 
C 1856 1272 1504 1184 1338 1184 
z
M 1581 0 
C 1734 0 2381 0 2381 -436 
C 2381 -711 1984 -928 1504 -928 
C 1018 -928 621 -717 621 -429 
C 621 -397 621 0 1062 0 
L 1581 0 
z
" transform="scale(0.015625)"/>
       <path id="CMSS17-68" d="M 2618 1878 
C 2618 2283 2522 2816 1798 2816 
C 1395 2816 1133 2617 947 2399 
L 947 4416 
L 474 4416 
L 474 0 
L 960 0 
L 960 1556 
C 960 1962 1114 2425 1549 2425 
C 2112 2425 2131 2045 2131 1826 
L 2131 0 
L 2618 0 
L 2618 1878 
z
" transform="scale(0.015625)"/>
       <path id="CMSS17-76" d="M 2675 2752 
L 2176 2752 
L 1747 1555 
C 1613 1164 1421 627 1389 352 
L 1382 352 
C 1370 467 1318 633 1286 748 
C 1248 889 1197 1056 1158 1171 
L 595 2752 
L 83 2752 
L 1094 0 
L 1664 0 
L 2675 2752 
z
" transform="scale(0.015625)"/>
      </defs>
      <use xlink:href="#CMSS17-57" transform="scale(0.996264)"/>
      <use xlink:href="#CMSS17-65" transform="translate(85.639712 0) scale(0.996264)"/>
      <use xlink:href="#CMSS17-69" transform="translate(127.278534 0) scale(0.996264)"/>
      <use xlink:href="#CMSS17-67" transform="translate(149.459257 0) scale(0.996264)"/>
      <use xlink:href="#CMSS17-68" transform="translate(196.302881 0) scale(0.996264)"/>
      <use xlink:href="#CMSS17-74" transform="translate(244.507824 0) scale(0.996264)"/>
      <use xlink:href="#CMSS17-76" transform="translate(309.568503 0) scale(0.996264)"/>
      <use xlink:href="#CMSS17-61" transform="translate(352.568645 0) scale(0.996264)"/>
      <use xlink:href="#CMSS17-6c" transform="translate(397.490566 0) scale(0.996264)"/>
      <use xlink:href="#CMSS17-75" transform="translate(419.671289 0) scale(0.996264)"/>
      <use xlink:href="#CMSS17-65" transform="translate(467.876232 0) scale(0.996264)"/>
     </g>
    </g>
   </g>
   <g id="line2d_15">
    <path d="M 77.842022 372.448353 
L 135.860829 324.002953 
L 193.879636 207.045413 
L 251.898443 90.087873 
L 309.91725 41.642474 
L 367.936057 90.087873 
L 425.954863 207.045413 
L 483.97367 324.002953 
L 541.992477 372.448353 
" clip-path="url(#p3f4d950fc9)" style="fill: none; stroke-dasharray: 6.4,1.6,1,1.6; stroke-dashoffset: 0; stroke: #000000"/>
   </g>
   <g id="line2d_16">
    <path d="M 77.842022 207.045413 
L 135.860829 207.045413 
L 193.879636 207.045413 
L 251.898443 207.045413 
L 309.91725 207.045413 
L 367.936057 207.045413 
L 425.954863 207.045413 
L 483.97367 207.045413 
L 541.992477 207.045413 
" clip-path="url(#p3f4d950fc9)" style="fill: none; stroke-dasharray: 3.7,1.6; stroke-dashoffset: 0; stroke: #1f77b4"/>
    <defs>
     <path id="mfe7165d49f" d="M 0 3 
C 0.795609 3 1.55874 2.683901 2.12132 2.12132 
C 2.683901 1.55874 3 0.795609 3 0 
C 3 -0.795609 2.683901 -1.55874 2.12132 -2.12132 
C 1.55874 -2.683901 0.795609 -3 0 -3 
C -0.795609 -3 -1.55874 -2.683901 -2.12132 -2.12132 
C -2.683901 -1.55874 -3 -0.795609 -3 0 
C -3 0.795609 -2.683901 1.55874 -2.12132 2.12132 
C -1.55874 2.683901 -0.795609 3 0 3 
z
"/>
    </defs>
    <g clip-path="url(#p3f4d950fc9)">
     <use xlink:href="#mfe7165d49f" x="77.842022" y="207.045413" style="fill: #1f77b4"/>
     <use xlink:href="#mfe7165d49f" x="135.860829" y="207.045413" style="fill: #1f77b4"/>
     <use xlink:href="#mfe7165d49f" x="193.879636" y="207.045413" style="fill: #1f77b4"/>
     <use xlink:href="#mfe7165d49f" x="251.898443" y="207.045413" style="fill: #1f77b4"/>
     <use xlink:href="#mfe7165d49f" x="309.91725" y="207.045413" style="fill: #1f77b4"/>
     <use xlink:href="#mfe7165d49f" x="367.936057" y="207.045413" style="fill: #1f77b4"/>
     <use xlink:href="#mfe7165d49f" x="425.954863" y="207.045413" style="fill: #1f77b4"/>
     <use xlink:href="#mfe7165d49f" x="483.97367" y="207.045413" style="fill: #1f77b4"/>
     <use xlink:href="#mfe7165d49f" x="541.992477" y="207.045413" style="fill: #1f77b4"/>
    </g>
   </g>
   <g id="line2d_17">
    <path d="M 77.842022 228.706121 
L 135.860829 221.739883 
L 193.879636 206.961998 
L 251.898443 192.5556 
L 309.91725 185.024329 
L 367.936057 192.5556 
L 425.954863 206.961998 
L 483.97367 221.739883 
L 541.992477 228.706121 
" clip-path="url(#p3f4d950fc9)" style="fill: none; stroke-dasharray: 3.7,1.6; stroke-dashoffset: 0; stroke: #ff7f0e"/>
    <defs>
     <path id="m434509c819" d="M 0 3 
C 0.795609 3 1.55874 2.683901 2.12132 2.12132 
C 2.683901 1.55874 3 0.795609 3 0 
C 3 -0.795609 2.683901 -1.55874 2.12132 -2.12132 
C 1.55874 -2.683901 0.795609 -3 0 -3 
C -0.795609 -3 -1.55874 -2.683901 -2.12132 -2.12132 
C -2.683901 -1.55874 -3 -0.795609 -3 0 
C -3 0.795609 -2.683901 1.55874 -2.12132 2.12132 
C -1.55874 2.683901 -0.795609 3 0 3 
z
"/>
    </defs>
    <g clip-path="url(#p3f4d950fc9)">
     <use xlink:href="#m434509c819" x="77.842022" y="228.706121" style="fill: #ff7f0e"/>
     <use xlink:href="#m434509c819" x="135.860829" y="221.739883" style="fill: #ff7f0e"/>
     <use xlink:href="#m434509c819" x="193.879636" y="206.961998" style="fill: #ff7f0e"/>
     <use xlink:href="#m434509c819" x="251.898443" y="192.5556" style="fill: #ff7f0e"/>
     <use xlink:href="#m434509c819" x="309.91725" y="185.024329" style="fill: #ff7f0e"/>
     <use xlink:href="#m434509c819" x="367.936057" y="192.5556" style="fill: #ff7f0e"/>
     <use xlink:href="#m434509c819" x="425.954863" y="206.961998" style="fill: #ff7f0e"/>
     <use xlink:href="#m434509c819" x="483.97367" y="221.739883" style="fill: #ff7f0e"/>
     <use xlink:href="#m434509c819" x="541.992477" y="228.706121" style="fill: #ff7f0e"/>
    </g>
   </g>
   <g id="line2d_18">
    <path d="M 77.842022 289.576199 
L 135.860829 264.905898 
L 193.879636 206.938694 
L 251.898443 149.390592 
L 309.91725 124.137134 
L 367.936057 149.398052 
L 425.954863 206.938302 
L 483.97367 264.910413 
L 541.992477 289.576199 
" clip-path="url(#p3f4d950fc9)" style="fill: none; stroke-dasharray: 3.7,1.6; stroke-dashoffset: 0; stroke: #2ca02c"/>
    <defs>
     <path id="m4af17a7ef4" d="M 0 3 
C 0.795609 3 1.55874 2.683901 2.12132 2.12132 
C 2.683901 1.55874 3 0.795609 3 0 
C 3 -0.795609 2.683901 -1.55874 2.12132 -2.12132 
C 1.55874 -2.683901 0.795609 -3 0 -3 
C -0.795609 -3 -1.55874 -2.683901 -2.12132 -2.12132 
C -2.683901 -1.55874 -3 -0.795609 -3 0 
C -3 0.795609 -2.683901 1.55874 -2.12132 2.12132 
C -1.55874 2.683901 -0.795609 3 0 3 
z
"/>
    </defs>
    <g clip-path="url(#p3f4d950fc9)">
     <use xlink:href="#m4af17a7ef4" x="77.842022" y="289.576199" style="fill: #2ca02c"/>
     <use xlink:href="#m4af17a7ef4" x="135.860829" y="264.905898" style="fill: #2ca02c"/>
     <use xlink:href="#m4af17a7ef4" x="193.879636" y="206.938694" style="fill: #2ca02c"/>
     <use xlink:href="#m4af17a7ef4" x="251.898443" y="149.390592" style="fill: #2ca02c"/>
     <use xlink:href="#m4af17a7ef4" x="309.91725" y="124.137134" style="fill: #2ca02c"/>
     <use xlink:href="#m4af17a7ef4" x="367.936057" y="149.398052" style="fill: #2ca02c"/>
     <use xlink:href="#m4af17a7ef4" x="425.954863" y="206.938302" style="fill: #2ca02c"/>
     <use xlink:href="#m4af17a7ef4" x="483.97367" y="264.910413" style="fill: #2ca02c"/>
     <use xlink:href="#m4af17a7ef4" x="541.992477" y="289.576199" style="fill: #2ca02c"/>
    </g>
   </g>
   <g id="line2d_19">
    <path d="M 77.842022 330.7277 
L 135.860829 294.248188 
L 193.879636 206.990254 
L 251.898443 119.941639 
L 309.91725 83.150676 
L 367.936057 119.945922 
L 425.954863 206.990854 
L 483.97367 294.250874 
L 541.992477 330.7277 
" clip-path="url(#p3f4d950fc9)" style="fill: none; stroke-dasharray: 3.7,1.6; stroke-dashoffset: 0; stroke: #d62728"/>
    <defs>
     <path id="m345d450164" d="M 0 3 
C 0.795609 3 1.55874 2.683901 2.12132 2.12132 
C 2.683901 1.55874 3 0.795609 3 0 
C 3 -0.795609 2.683901 -1.55874 2.12132 -2.12132 
C 1.55874 -2.683901 0.795609 -3 0 -3 
C -0.795609 -3 -1.55874 -2.683901 -2.12132 -2.12132 
C -2.683901 -1.55874 -3 -0.795609 -3 0 
C -3 0.795609 -2.683901 1.55874 -2.12132 2.12132 
C -1.55874 2.683901 -0.795609 3 0 3 
z
"/>
    </defs>
    <g clip-path="url(#p3f4d950fc9)">
     <use xlink:href="#m345d450164" x="77.842022" y="330.7277" style="fill: #d62728"/>
     <use xlink:href="#m345d450164" x="135.860829" y="294.248188" style="fill: #d62728"/>
     <use xlink:href="#m345d450164" x="193.879636" y="206.990254" style="fill: #d62728"/>
     <use xlink:href="#m345d450164" x="251.898443" y="119.941639" style="fill: #d62728"/>
     <use xlink:href="#m345d450164" x="309.91725" y="83.150676" style="fill: #d62728"/>
     <use xlink:href="#m345d450164" x="367.936057" y="119.945922" style="fill: #d62728"/>
     <use xlink:href="#m345d450164" x="425.954863" y="206.990854" style="fill: #d62728"/>
     <use xlink:href="#m345d450164" x="483.97367" y="294.250874" style="fill: #d62728"/>
     <use xlink:href="#m345d450164" x="541.992477" y="330.7277" style="fill: #d62728"/>
    </g>
   </g>
   <g id="line2d_20">
    <path d="M 77.842022 367.06976 
L 135.860829 320.168964 
L 193.879636 207.033536 
L 251.898443 93.932824 
L 309.91725 46.938138 
L 367.936057 93.933862 
L 425.954863 207.033706 
L 483.97367 320.169087 
L 541.992477 367.06976 
" clip-path="url(#p3f4d950fc9)" style="fill: none; stroke-dasharray: 3.7,1.6; stroke-dashoffset: 0; stroke: #9467bd"/>
    <defs>
     <path id="m3b1f2d7713" d="M 0 3 
C 0.795609 3 1.55874 2.683901 2.12132 2.12132 
C 2.683901 1.55874 3 0.795609 3 0 
C 3 -0.795609 2.683901 -1.55874 2.12132 -2.12132 
C 1.55874 -2.683901 0.795609 -3 0 -3 
C -0.795609 -3 -1.55874 -2.683901 -2.12132 -2.12132 
C -2.683901 -1.55874 -3 -0.795609 -3 0 
C -3 0.795609 -2.683901 1.55874 -2.12132 2.12132 
C -1.55874 2.683901 -0.795609 3 0 3 
z
"/>
    </defs>
    <g clip-path="url(#p3f4d950fc9)">
     <use xlink:href="#m3b1f2d7713" x="77.842022" y="367.06976" style="fill: #9467bd"/>
     <use xlink:href="#m3b1f2d7713" x="135.860829" y="320.168964" style="fill: #9467bd"/>
     <use xlink:href="#m3b1f2d7713" x="193.879636" y="207.033536" style="fill: #9467bd"/>
     <use xlink:href="#m3b1f2d7713" x="251.898443" y="93.932824" style="fill: #9467bd"/>
     <use xlink:href="#m3b1f2d7713" x="309.91725" y="46.938138" style="fill: #9467bd"/>
     <use xlink:href="#m3b1f2d7713" x="367.936057" y="93.933862" style="fill: #9467bd"/>
     <use xlink:href="#m3b1f2d7713" x="425.954863" y="207.033706" style="fill: #9467bd"/>
     <use xlink:href="#m3b1f2d7713" x="483.97367" y="320.169087" style="fill: #9467bd"/>
     <use xlink:href="#m3b1f2d7713" x="541.992477" y="367.06976" style="fill: #9467bd"/>
    </g>
   </g>
   <g id="line2d_21">
    <path d="M 77.842022 372.383065 
L 135.860829 323.928696 
L 193.879636 207.050842 
L 251.898443 90.157445 
L 309.91725 41.642649 
L 367.936057 90.157911 
L 425.954863 207.051534 
L 483.97367 323.928912 
L 541.992477 372.383065 
" clip-path="url(#p3f4d950fc9)" style="fill: none; stroke-dasharray: 3.7,1.6; stroke-dashoffset: 0; stroke: #8c564b"/>
    <defs>
     <path id="mb49e22b6d7" d="M 0 3 
C 0.795609 3 1.55874 2.683901 2.12132 2.12132 
C 2.683901 1.55874 3 0.795609 3 0 
C 3 -0.795609 2.683901 -1.55874 2.12132 -2.12132 
C 1.55874 -2.683901 0.795609 -3 0 -3 
C -0.795609 -3 -1.55874 -2.683901 -2.12132 -2.12132 
C -2.683901 -1.55874 -3 -0.795609 -3 0 
C -3 0.795609 -2.683901 1.55874 -2.12132 2.12132 
C -1.55874 2.683901 -0.795609 3 0 3 
z
"/>
    </defs>
    <g clip-path="url(#p3f4d950fc9)">
     <use xlink:href="#mb49e22b6d7" x="77.842022" y="372.383065" style="fill: #8c564b"/>
     <use xlink:href="#mb49e22b6d7" x="135.860829" y="323.928696" style="fill: #8c564b"/>
     <use xlink:href="#mb49e22b6d7" x="193.879636" y="207.050842" style="fill: #8c564b"/>
     <use xlink:href="#mb49e22b6d7" x="251.898443" y="90.157445" style="fill: #8c564b"/>
     <use xlink:href="#mb49e22b6d7" x="309.91725" y="41.642649" style="fill: #8c564b"/>
     <use xlink:href="#mb49e22b6d7" x="367.936057" y="90.157911" style="fill: #8c564b"/>
     <use xlink:href="#mb49e22b6d7" x="425.954863" y="207.051534" style="fill: #8c564b"/>
     <use xlink:href="#mb49e22b6d7" x="483.97367" y="323.928912" style="fill: #8c564b"/>
     <use xlink:href="#mb49e22b6d7" x="541.992477" y="372.383065" style="fill: #8c564b"/>
    </g>
   </g>
   <g id="patch_3">
    <path d="M 54.634499 388.988647 
L 54.634499 25.10218 
" style="fill: none; stroke: #000000; stroke-width: 0.8; stroke-linejoin: miter; stroke-linecap: square"/>
   </g>
   <g id="patch_4">
    <path d="M 565.2 388.988647 
L 565.2 25.10218 
" style="fill: none; stroke: #000000; stroke-width: 0.8; stroke-linejoin: miter; stroke-linecap: square"/>
   </g>
   <g id="patch_5">
    <path d="M 54.634499 388.988647 
L 565.2 388.988647 
" style="fill: none; stroke: #000000; stroke-width: 0.8; stroke-linejoin: miter; stroke-linecap: square"/>
   </g>
   <g id="patch_6">
    <path d="M 54.634499 25.10218 
L 565.2 25.10218 
" style="fill: none; stroke: #000000; stroke-width: 0.8; stroke-linejoin: miter; stroke-linecap: square"/>
   </g>
   <g id="text_17">
    <!-- Weight convergence with dynamic activity -->
    <g transform="translate(207.092295 19.10218) scale(0.12 -0.12)">
     <defs>
      <path id="CMSS17-77" d="M 4013 2752 
L 3526 2752 
L 3187 1600 
C 3117 1356 2918 684 2893 371 
L 2886 371 
C 2874 563 2765 1024 2586 1632 
L 2259 2752 
L 1818 2752 
L 1498 1657 
C 1338 1100 1216 627 1203 371 
L 1197 371 
C 1171 748 909 1632 870 1772 
L 582 2752 
L 83 2752 
L 915 0 
L 1402 0 
C 1734 1100 1990 1952 2010 2380 
C 2022 2169 2131 1715 2195 1491 
L 2618 0 
L 3181 0 
L 4013 2752 
z
" transform="scale(0.015625)"/>
      <path id="CMSS17-79" d="M 2675 2752 
L 2176 2752 
C 1632 1293 1446 701 1434 383 
L 1427 383 
C 1408 695 1126 1459 902 2006 
L 602 2752 
L 83 2752 
L 1216 14 
C 1146 -177 1043 -464 1011 -527 
C 870 -884 774 -884 672 -884 
C 646 -884 442 -877 211 -807 
L 250 -1229 
C 410 -1261 570 -1280 685 -1280 
C 845 -1280 1165 -1280 1459 -495 
L 2675 2752 
z
" transform="scale(0.015625)"/>
      <path id="CMSS17-6d" d="M 4288 1878 
C 4288 2309 4179 2816 3462 2816 
C 2982 2816 2694 2515 2566 2328 
C 2451 2668 2182 2816 1798 2816 
C 1363 2816 1088 2566 941 2386 
L 941 2783 
L 474 2783 
L 474 0 
L 960 0 
L 960 1556 
C 960 1936 1101 2425 1555 2425 
C 2138 2425 2138 2013 2138 1826 
L 2138 0 
L 2624 0 
L 2624 1556 
C 2624 1936 2765 2425 3219 2425 
C 3802 2425 3802 2013 3802 1826 
L 3802 0 
L 4288 0 
L 4288 1878 
z
" transform="scale(0.015625)"/>
     </defs>
     <use xlink:href="#CMSS17-57" transform="scale(0.996264)"/>
     <use xlink:href="#CMSS17-65" transform="translate(85.639712 0) scale(0.996264)"/>
     <use xlink:href="#CMSS17-69" transform="translate(127.278534 0) scale(0.996264)"/>
     <use xlink:href="#CMSS17-67" transform="translate(149.459257 0) scale(0.996264)"/>
     <use xlink:href="#CMSS17-68" transform="translate(196.302881 0) scale(0.996264)"/>
     <use xlink:href="#CMSS17-74" transform="translate(244.507824 0) scale(0.996264)"/>
     <use xlink:href="#CMSS17-63" transform="translate(309.568503 0) scale(0.996264)"/>
     <use xlink:href="#CMSS17-6f" transform="translate(351.207326 0) scale(0.996264)"/>
     <use xlink:href="#CMSS17-6e" transform="translate(398.050949 0) scale(0.996264)"/>
     <use xlink:href="#CMSS17-76" transform="translate(446.255892 0) scale(0.996264)"/>
     <use xlink:href="#CMSS17-65" transform="translate(489.256034 0) scale(0.996264)"/>
     <use xlink:href="#CMSS17-72" transform="translate(530.894856 0) scale(0.996264)"/>
     <use xlink:href="#CMSS17-67" transform="translate(562.804629 0) scale(0.996264)"/>
     <use xlink:href="#CMSS17-65" transform="translate(609.648252 0) scale(0.996264)"/>
     <use xlink:href="#CMSS17-6e" transform="translate(651.287074 0) scale(0.996264)"/>
     <use xlink:href="#CMSS17-63" transform="translate(699.492017 0) scale(0.996264)"/>
     <use xlink:href="#CMSS17-65" transform="translate(741.130839 0) scale(0.996264)"/>
     <use xlink:href="#CMSS17-77" transform="translate(813.998774 0) scale(0.996264)"/>
     <use xlink:href="#CMSS17-69" transform="translate(877.818319 0) scale(0.996264)"/>
     <use xlink:href="#CMSS17-74" transform="translate(899.999042 0) scale(0.996264)"/>
     <use xlink:href="#CMSS17-68" transform="translate(933.830609 0) scale(0.996264)"/>
     <use xlink:href="#CMSS17-64" transform="translate(1013.264665 0) scale(0.996264)"/>
     <use xlink:href="#CMSS17-79" transform="translate(1061.469608 0) scale(0.996264)"/>
     <use xlink:href="#CMSS17-6e" transform="translate(1104.46975 0) scale(0.996264)"/>
     <use xlink:href="#CMSS17-61" transform="translate(1152.674693 0) scale(0.996264)"/>
     <use xlink:href="#CMSS17-6d" transform="translate(1197.596613 0) scale(0.996264)"/>
     <use xlink:href="#CMSS17-69" transform="translate(1271.825868 0) scale(0.996264)"/>
     <use xlink:href="#CMSS17-63" transform="translate(1294.006591 0) scale(0.996264)"/>
     <use xlink:href="#CMSS17-61" transform="translate(1366.874526 0) scale(0.996264)"/>
     <use xlink:href="#CMSS17-63" transform="translate(1411.796446 0) scale(0.996264)"/>
     <use xlink:href="#CMSS17-74" transform="translate(1453.435268 0) scale(0.996264)"/>
     <use xlink:href="#CMSS17-69" transform="translate(1487.266835 0) scale(0.996264)"/>
     <use xlink:href="#CMSS17-76" transform="translate(1509.447558 0) scale(0.996264)"/>
     <use xlink:href="#CMSS17-69" transform="translate(1552.4477 0) scale(0.996264)"/>
     <use xlink:href="#CMSS17-74" transform="translate(1574.628423 0) scale(0.996264)"/>
     <use xlink:href="#CMSS17-79" transform="translate(1605.857536 0) scale(0.996264)"/>
    </g>
   </g>
   <g id="legend_1">
    <g id="patch_7">
     <path d="M 455.492786 130.662428 
L 558.2 130.662428 
Q 560.2 130.662428 560.2 128.662428 
L 560.2 32.10218 
Q 560.2 30.10218 558.2 30.10218 
L 455.492786 30.10218 
Q 453.492786 30.10218 453.492786 32.10218 
L 453.492786 128.662428 
Q 453.492786 130.662428 455.492786 130.662428 
z
" style="fill: #ffffff; opacity: 0.8; stroke: #cccccc; stroke-width: 0.3; stroke-linejoin: miter"/>
    </g>
    <g id="line2d_22">
     <path d="M 457.492786 37.60218 
L 467.492786 37.60218 
L 477.492786 37.60218 
" style="fill: none; stroke-dasharray: 6.4,1.6,1,1.6; stroke-dashoffset: 0; stroke: #000000"/>
    </g>
    <g id="text_18">
     <!-- stable weights -->
     <g transform="translate(485.492786 41.10218) scale(0.1 -0.1)">
      <defs>
       <path id="CMSS17-62" d="M 954 4416 
L 480 4416 
L 480 -13 
L 966 -13 
L 966 275 
C 1210 38 1504 -64 1766 -64 
C 2381 -64 2880 559 2880 1382 
C 2880 2133 2496 2816 1926 2816 
C 1523 2816 1165 2649 954 2476 
L 954 4416 
z
M 966 2095 
C 1107 2276 1306 2425 1587 2425 
C 1965 2425 2394 2146 2394 1382 
C 2394 566 1882 326 1530 326 
C 1402 326 1267 358 1139 468 
C 966 624 966 721 966 812 
L 966 2095 
z
" transform="scale(0.015625)"/>
      </defs>
      <use xlink:href="#CMSS17-73" transform="scale(0.996264)"/>
      <use xlink:href="#CMSS17-74" transform="translate(35.913542 0) scale(0.996264)"/>
      <use xlink:href="#CMSS17-61" transform="translate(69.745109 0) scale(0.996264)"/>
      <use xlink:href="#CMSS17-62" transform="translate(114.667029 0) scale(0.996264)"/>
      <use xlink:href="#CMSS17-6c" transform="translate(162.871972 0) scale(0.996264)"/>
      <use xlink:href="#CMSS17-65" transform="translate(185.052695 0) scale(0.996264)"/>
      <use xlink:href="#CMSS17-77" transform="translate(257.92063 0) scale(0.996264)"/>
      <use xlink:href="#CMSS17-65" transform="translate(319.137721 0) scale(0.996264)"/>
      <use xlink:href="#CMSS17-69" transform="translate(360.776544 0) scale(0.996264)"/>
      <use xlink:href="#CMSS17-67" transform="translate(382.957267 0) scale(0.996264)"/>
      <use xlink:href="#CMSS17-68" transform="translate(429.80089 0) scale(0.996264)"/>
      <use xlink:href="#CMSS17-74" transform="translate(478.005833 0) scale(0.996264)"/>
      <use xlink:href="#CMSS17-73" transform="translate(511.8374 0) scale(0.996264)"/>
     </g>
    </g>
    <g id="line2d_23">
     <path d="M 457.492786 51.539358 
L 467.492786 51.539358 
L 477.492786 51.539358 
" style="fill: none; stroke-dasharray: 3.7,1.6; stroke-dashoffset: 0; stroke: #1f77b4"/>
     <g>
      <use xlink:href="#mfe7165d49f" x="467.492786" y="51.539358" style="fill: #1f77b4"/>
     </g>
    </g>
    <g id="text_19">
     <!-- initial weights -->
     <g transform="translate(485.492786 55.039358) scale(0.1 -0.1)">
      <use xlink:href="#CMSS17-69" transform="scale(0.996264)"/>
      <use xlink:href="#CMSS17-6e" transform="translate(22.180723 0) scale(0.996264)"/>
      <use xlink:href="#CMSS17-69" transform="translate(70.385666 0) scale(0.996264)"/>
      <use xlink:href="#CMSS17-74" transform="translate(92.566389 0) scale(0.996264)"/>
      <use xlink:href="#CMSS17-69" transform="translate(126.397956 0) scale(0.996264)"/>
      <use xlink:href="#CMSS17-61" transform="translate(148.578679 0) scale(0.996264)"/>
      <use xlink:href="#CMSS17-6c" transform="translate(193.5006 0) scale(0.996264)"/>
      <use xlink:href="#CMSS17-77" transform="translate(246.910435 0) scale(0.996264)"/>
      <use xlink:href="#CMSS17-65" transform="translate(308.127527 0) scale(0.996264)"/>
      <use xlink:href="#CMSS17-69" transform="translate(349.766349 0) scale(0.996264)"/>
      <use xlink:href="#CMSS17-67" transform="translate(371.947072 0) scale(0.996264)"/>
      <use xlink:href="#CMSS17-68" transform="translate(418.790695 0) scale(0.996264)"/>
      <use xlink:href="#CMSS17-74" transform="translate(466.995638 0) scale(0.996264)"/>
      <use xlink:href="#CMSS17-73" transform="translate(500.827205 0) scale(0.996264)"/>
     </g>
    </g>
    <g id="line2d_24">
     <path d="M 457.492786 65.476536 
L 467.492786 65.476536 
L 477.492786 65.476536 
" style="fill: none; stroke-dasharray: 3.7,1.6; stroke-dashoffset: 0; stroke: #ff7f0e"/>
     <g>
      <use xlink:href="#m434509c819" x="467.492786" y="65.476536" style="fill: #ff7f0e"/>
     </g>
    </g>
    <g id="text_20">
     <!-- after 1 period -->
     <g transform="translate(485.492786 68.976536) scale(0.1 -0.1)">
      <defs>
       <path id="CMSS17-66" d="M 1075 2380 
L 1722 2380 
L 1722 2752 
L 1062 2752 
L 1062 3563 
C 1062 4013 1408 4089 1606 4089 
C 1670 4089 1850 4089 2080 4007 
L 2080 4428 
C 1933 4460 1754 4480 1613 4480 
C 1018 4480 602 3994 602 3366 
L 602 2752 
L 160 2752 
L 160 2380 
L 602 2380 
L 602 0 
L 1075 0 
L 1075 2380 
z
" transform="scale(0.015625)"/>
       <path id="CMSS17-31" d="M 1818 4288 
L 1696 4288 
C 1350 3949 947 3902 538 3891 
L 538 3520 
C 723 3526 1024 3539 1325 3673 
L 1325 371 
L 570 371 
L 570 0 
L 2573 0 
L 2573 371 
L 1818 371 
L 1818 4288 
z
" transform="scale(0.015625)"/>
       <path id="CMSS17-70" d="M 966 275 
C 1178 70 1466 -64 1773 -64 
C 2368 -64 2880 553 2880 1382 
C 2880 2147 2496 2816 1946 2816 
C 1626 2816 1242 2700 954 2470 
L 954 2764 
L 480 2764 
L 480 -1280 
L 966 -1280 
L 966 275 
z
M 966 2088 
C 1018 2166 1235 2412 1587 2412 
C 2035 2412 2394 1946 2394 1382 
C 2394 741 1958 326 1530 326 
C 1402 326 1267 358 1139 468 
C 966 624 966 721 966 812 
L 966 2088 
z
" transform="scale(0.015625)"/>
      </defs>
      <use xlink:href="#CMSS17-61" transform="scale(0.996264)"/>
      <use xlink:href="#CMSS17-66" transform="translate(44.921921 0) scale(0.996264)"/>
      <use xlink:href="#CMSS17-74" transform="translate(73.548579 0) scale(0.996264)"/>
      <use xlink:href="#CMSS17-65" transform="translate(107.380146 0) scale(0.996264)"/>
      <use xlink:href="#CMSS17-72" transform="translate(149.018968 0) scale(0.996264)"/>
      <use xlink:href="#CMSS17-31" transform="translate(212.157853 0) scale(0.996264)"/>
      <use xlink:href="#CMSS17-70" transform="translate(290.23059 0) scale(0.996264)"/>
      <use xlink:href="#CMSS17-65" transform="translate(341.037972 0) scale(0.996264)"/>
      <use xlink:href="#CMSS17-72" transform="translate(382.676794 0) scale(0.996264)"/>
      <use xlink:href="#CMSS17-69" transform="translate(414.586566 0) scale(0.996264)"/>
      <use xlink:href="#CMSS17-6f" transform="translate(436.767289 0) scale(0.996264)"/>
      <use xlink:href="#CMSS17-64" transform="translate(486.213352 0) scale(0.996264)"/>
     </g>
    </g>
    <g id="line2d_25">
     <path d="M 457.492786 79.413715 
L 467.492786 79.413715 
L 477.492786 79.413715 
" style="fill: none; stroke-dasharray: 3.7,1.6; stroke-dashoffset: 0; stroke: #2ca02c"/>
     <g>
      <use xlink:href="#m4af17a7ef4" x="467.492786" y="79.413715" style="fill: #2ca02c"/>
     </g>
    </g>
    <g id="text_21">
     <!-- after 5 periods -->
     <g transform="translate(485.492786 82.913715) scale(0.1 -0.1)">
      <defs>
       <path id="CMSS17-35" d="M 934 3814 
L 2502 3814 
L 2502 4224 
L 467 4224 
L 467 1830 
L 896 1830 
C 1011 2103 1248 2304 1555 2304 
C 1843 2304 2163 2044 2163 1299 
C 2163 502 1709 268 1376 268 
C 966 268 589 521 422 871 
L 218 508 
C 512 51 992 -128 1376 -128 
C 2118 -128 2701 508 2701 1286 
C 2701 2083 2182 2694 1562 2694 
C 1338 2694 1120 2617 934 2464 
L 934 3814 
z
" transform="scale(0.015625)"/>
      </defs>
      <use xlink:href="#CMSS17-61" transform="scale(0.996264)"/>
      <use xlink:href="#CMSS17-66" transform="translate(44.921921 0) scale(0.996264)"/>
      <use xlink:href="#CMSS17-74" transform="translate(73.548579 0) scale(0.996264)"/>
      <use xlink:href="#CMSS17-65" transform="translate(107.380146 0) scale(0.996264)"/>
      <use xlink:href="#CMSS17-72" transform="translate(149.018968 0) scale(0.996264)"/>
      <use xlink:href="#CMSS17-35" transform="translate(212.157853 0) scale(0.996264)"/>
      <use xlink:href="#CMSS17-70" transform="translate(290.23059 0) scale(0.996264)"/>
      <use xlink:href="#CMSS17-65" transform="translate(341.037972 0) scale(0.996264)"/>
      <use xlink:href="#CMSS17-72" transform="translate(382.676794 0) scale(0.996264)"/>
      <use xlink:href="#CMSS17-69" transform="translate(414.586566 0) scale(0.996264)"/>
      <use xlink:href="#CMSS17-6f" transform="translate(436.767289 0) scale(0.996264)"/>
      <use xlink:href="#CMSS17-64" transform="translate(486.213352 0) scale(0.996264)"/>
      <use xlink:href="#CMSS17-73" transform="translate(534.418295 0) scale(0.996264)"/>
     </g>
    </g>
    <g id="line2d_26">
     <path d="M 457.492786 93.350893 
L 467.492786 93.350893 
L 477.492786 93.350893 
" style="fill: none; stroke-dasharray: 3.7,1.6; stroke-dashoffset: 0; stroke: #d62728"/>
     <g>
      <use xlink:href="#m345d450164" x="467.492786" y="93.350893" style="fill: #d62728"/>
     </g>
    </g>
    <g id="text_22">
     <!-- after 10 periods -->
     <g transform="translate(485.492786 96.850893) scale(0.1 -0.1)">
      <defs>
       <path id="CMSS17-30" d="M 2758 2073 
C 2758 2439 2752 3120 2490 3647 
C 2227 4153 1805 4288 1504 4288 
C 1069 4288 698 4031 506 3621 
C 301 3191 243 2748 243 2073 
C 243 1611 262 1046 493 551 
C 755 6 1197 -128 1498 -128 
C 1894 -128 2278 83 2496 525 
C 2720 988 2758 1495 2758 2073 
z
M 1498 262 
C 1011 262 864 821 819 1007 
C 742 1328 730 1636 730 2144 
C 730 2542 730 2992 851 3345 
C 998 3756 1254 3897 1498 3897 
C 1971 3897 2125 3422 2176 3255 
C 2272 2915 2272 2516 2272 2144 
C 2272 1546 2272 262 1498 262 
z
" transform="scale(0.015625)"/>
      </defs>
      <use xlink:href="#CMSS17-61" transform="scale(0.996264)"/>
      <use xlink:href="#CMSS17-66" transform="translate(44.921921 0) scale(0.996264)"/>
      <use xlink:href="#CMSS17-74" transform="translate(73.548579 0) scale(0.996264)"/>
      <use xlink:href="#CMSS17-65" transform="translate(107.380146 0) scale(0.996264)"/>
      <use xlink:href="#CMSS17-72" transform="translate(149.018968 0) scale(0.996264)"/>
      <use xlink:href="#CMSS17-31" transform="translate(212.157853 0) scale(0.996264)"/>
      <use xlink:href="#CMSS17-30" transform="translate(259.001477 0) scale(0.996264)"/>
      <use xlink:href="#CMSS17-70" transform="translate(337.074213 0) scale(0.996264)"/>
      <use xlink:href="#CMSS17-65" transform="translate(387.881595 0) scale(0.996264)"/>
      <use xlink:href="#CMSS17-72" transform="translate(429.520417 0) scale(0.996264)"/>
      <use xlink:href="#CMSS17-69" transform="translate(461.43019 0) scale(0.996264)"/>
      <use xlink:href="#CMSS17-6f" transform="translate(483.610913 0) scale(0.996264)"/>
      <use xlink:href="#CMSS17-64" transform="translate(533.056975 0) scale(0.996264)"/>
      <use xlink:href="#CMSS17-73" transform="translate(581.261918 0) scale(0.996264)"/>
     </g>
    </g>
    <g id="line2d_27">
     <path d="M 457.492786 107.288071 
L 467.492786 107.288071 
L 477.492786 107.288071 
" style="fill: none; stroke-dasharray: 3.7,1.6; stroke-dashoffset: 0; stroke: #9467bd"/>
     <g>
      <use xlink:href="#m3b1f2d7713" x="467.492786" y="107.288071" style="fill: #9467bd"/>
     </g>
    </g>
    <g id="text_23">
     <!-- after 25 periods -->
     <g transform="translate(485.492786 110.788071) scale(0.1 -0.1)">
      <defs>
       <path id="CMSS17-32" d="M 1651 1353 
C 1830 1538 2099 1761 2285 1984 
C 2464 2201 2701 2507 2701 2953 
C 2701 3655 2227 4288 1421 4288 
C 787 4288 422 3891 250 3272 
L 499 2928 
C 640 3508 838 3878 1338 3878 
C 1888 3878 2195 3431 2195 2940 
C 2195 2354 1747 1901 1408 1563 
C 1030 1187 659 805 301 409 
L 301 0 
L 2701 0 
L 2701 435 
L 1613 435 
C 1536 435 1459 428 1382 428 
L 742 428 
L 742 435 
L 1651 1353 
z
" transform="scale(0.015625)"/>
      </defs>
      <use xlink:href="#CMSS17-61" transform="scale(0.996264)"/>
      <use xlink:href="#CMSS17-66" transform="translate(44.921921 0) scale(0.996264)"/>
      <use xlink:href="#CMSS17-74" transform="translate(73.548579 0) scale(0.996264)"/>
      <use xlink:href="#CMSS17-65" transform="translate(107.380146 0) scale(0.996264)"/>
      <use xlink:href="#CMSS17-72" transform="translate(149.018968 0) scale(0.996264)"/>
      <use xlink:href="#CMSS17-32" transform="translate(212.157853 0) scale(0.996264)"/>
      <use xlink:href="#CMSS17-35" transform="translate(259.001477 0) scale(0.996264)"/>
      <use xlink:href="#CMSS17-70" transform="translate(337.074213 0) scale(0.996264)"/>
      <use xlink:href="#CMSS17-65" transform="translate(387.881595 0) scale(0.996264)"/>
      <use xlink:href="#CMSS17-72" transform="translate(429.520417 0) scale(0.996264)"/>
      <use xlink:href="#CMSS17-69" transform="translate(461.43019 0) scale(0.996264)"/>
      <use xlink:href="#CMSS17-6f" transform="translate(483.610913 0) scale(0.996264)"/>
      <use xlink:href="#CMSS17-64" transform="translate(533.056975 0) scale(0.996264)"/>
      <use xlink:href="#CMSS17-73" transform="translate(581.261918 0) scale(0.996264)"/>
     </g>
    </g>
    <g id="line2d_28">
     <path d="M 457.492786 121.22525 
L 467.492786 121.22525 
L 477.492786 121.22525 
" style="fill: none; stroke-dasharray: 3.7,1.6; stroke-dashoffset: 0; stroke: #8c564b"/>
     <g>
      <use xlink:href="#mb49e22b6d7" x="467.492786" y="121.22525" style="fill: #8c564b"/>
     </g>
    </g>
    <g id="text_24">
     <!-- after 100 periods -->
     <g transform="translate(485.492786 124.72525) scale(0.1 -0.1)">
      <use xlink:href="#CMSS17-61" transform="scale(0.996264)"/>
      <use xlink:href="#CMSS17-66" transform="translate(44.921921 0) scale(0.996264)"/>
      <use xlink:href="#CMSS17-74" transform="translate(73.548579 0) scale(0.996264)"/>
      <use xlink:href="#CMSS17-65" transform="translate(107.380146 0) scale(0.996264)"/>
      <use xlink:href="#CMSS17-72" transform="translate(149.018968 0) scale(0.996264)"/>
      <use xlink:href="#CMSS17-31" transform="translate(212.157853 0) scale(0.996264)"/>
      <use xlink:href="#CMSS17-30" transform="translate(259.001477 0) scale(0.996264)"/>
      <use xlink:href="#CMSS17-30" transform="translate(305.845101 0) scale(0.996264)"/>
      <use xlink:href="#CMSS17-70" transform="translate(383.917837 0) scale(0.996264)"/>
      <use xlink:href="#CMSS17-65" transform="translate(434.725219 0) scale(0.996264)"/>
      <use xlink:href="#CMSS17-72" transform="translate(476.364041 0) scale(0.996264)"/>
      <use xlink:href="#CMSS17-69" transform="translate(508.273813 0) scale(0.996264)"/>
      <use xlink:href="#CMSS17-6f" transform="translate(530.454536 0) scale(0.996264)"/>
      <use xlink:href="#CMSS17-64" transform="translate(579.900599 0) scale(0.996264)"/>
      <use xlink:href="#CMSS17-73" transform="translate(628.105542 0) scale(0.996264)"/>
     </g>
    </g>
   </g>
  </g>
 </g>
 <defs>
  <clipPath id="p3f4d950fc9">
   <rect x="54.634499" y="25.10218" width="510.565501" height="363.886467"/>
  </clipPath>
 </defs>
</svg>
